<svg version="1.1" xmlns="http://www.w3.org/2000/svg" xmlns:xlink="http://www.w3.org/1999/xlink" width="91" height="91" viewBox="0,0,91,91"><g transform="translate(-194.5,-134.5)"><g data-paper-data="{&quot;isPaintingLayer&quot;:true}" fill-rule="nonzero" stroke="none" stroke-linecap="butt" stroke-linejoin="miter" stroke-miterlimit="10" stroke-dasharray="" stroke-dashoffset="0" style="mix-blend-mode: normal"><path d="M285.5,180c0,25.12896 -20.37104,45.5 -45.5,45.5c-25.12896,0 -45.5,-20.37104 -45.5,-45.5c0,-25.12896 20.37104,-45.5 45.5,-45.5c25.12896,0 45.5,20.37104 45.5,45.5z" fill="#00ff58" stroke-width="0"/><path d="M223.8,209.8v-59.6h32.4v59.6z" fill="#676767" stroke-width="0"/><path d="M227.45455,158.45455v-1.45455h25.09091v1.45455z" fill="#272727" stroke-width="0"/><path d="M227.45454,155.27273v-1.45455h25.09091v1.45455z" fill="#272727" stroke-width="0"/><path d="M227.45455,164.77273v-1.45455h25.09091v1.45455z" fill="#272727" stroke-width="0"/><path d="M227.45455,161.59091v-1.45455h25.09091v1.45455z" fill="#272727" stroke-width="0"/><text transform="translate(227.45455,175.42295) scale(0.12579,0.12579)" font-size="40" xml:space="preserve" fill="#ffffff" fill-rule="nonzero" stroke="none" stroke-width="1" stroke-linecap="butt" stroke-linejoin="miter" stroke-miterlimit="10" stroke-dasharray="" stroke-dashoffset="0" font-family="Sans Serif" font-weight="normal" text-anchor="start" style="mix-blend-mode: normal"><tspan x="0" dy="0">&gt; Git</tspan></text></g></g></svg>